# xmcd
#
# Track frame offsets: 
#        150
#        17992
#        35357
#        54257
#        78672
#        98430
#        120987
#        138310
#        162312
#
# Disc length: 2415 seconds
#
# Revision: 3
# Processed by: cddbd v1.5.2PL0 Copyright (c) Steve Scherf et al.
# Submitted via: ExactAudioCopyFreeDBPlugin 1.0
#
DISCID=65096d09
DTITLE=Lorenzo Smith - Let Me Show You
DYEAR=1990
DGENRE=Funk
TTITLE0=Angel
TTITLE1=Tic Tok
TTITLE2=I Can't Believe It
TTITLE3=Natasha
TTITLE4=Rock Me
TTITLE5=Baby Please
TTITLE6=Walk With You
TTITLE7=Let Me Show U
TTITLE8=My Love
EXTD=
EXTT0=
EXTT1=
EXTT2=
EXTT3=
EXTT4=
EXTT5=
EXTT6=
EXTT7=
EXTT8=
PLAYORDER=
